<?xml version="1.0" encoding="UTF-8"?>
<svg width="383px" height="295px" viewBox="0 0 383 295" version="1.1" xmlns="http://www.w3.org/2000/svg" xmlns:xlink="http://www.w3.org/1999/xlink">
    <!-- Generator: Sketch 51.2 (57519) - http://www.bohemiancoding.com/sketch -->
    <title>Page 1</title>
    <desc>Created with Sketch.</desc>
    <defs></defs>
    <g id="1920-copy" stroke="none" stroke-width="1" fill="none" fill-rule="evenodd" stroke-linecap="round" stroke-linejoin="round">
        <g id="Custom-Preset-10-Copy-5" transform="translate(-867.000000, -523.000000)" stroke-width="6.072">
            <g id="Page-1" transform="translate(1031.165663, 674.000000) scale(-1, 1) rotate(-327.000000) translate(-1031.165663, -674.000000) translate(909.165663, 465.500000)">
                <g id="Group-7" transform="translate(-0.000000, 172.316687)">
                    <path d="M0.11417959,0.113924228 L0.11417959,243.456076" id="Stroke-1" stroke="#00DBFF"></path>
                    <path d="M0.11417959,0.113924228 L63.2369955,235.164443" id="Stroke-3" stroke="#00DBFF"></path>
                    <path d="M0.11417959,0.113924228 L2.96866933,5.04684332" id="Stroke-5" stroke="#FFFFFF"></path>
                </g>
                <path d="M6.54367165,182.495732 L13.0873433,193.401851" id="Stroke-8" stroke="#FFFFFF" stroke-dasharray="0,18.9059992980957,12.60436744689942,0"></path>
                <path d="M0.509869706,173.056306 L118.513164,378.078807" id="Stroke-9" stroke="#FFFFFF" stroke-dasharray="1.416799964904785,0.92,0.92"></path>
                <path d="M-2.84217094e-13,172.316687 L4.36244777,176.679135" id="Stroke-11" stroke="#FFFFFF"></path>
                <path d="M8.72489554,181.041582 L18.1768657,190.493553" id="Stroke-13" stroke="#FFFFFF" stroke-dasharray="0,18.9059992980957,12.60436744689942,0"></path>
                <path d="M0.113876483,172.44653 L168.681314,340.270926" id="Stroke-14" stroke="#FFFFFF" stroke-dasharray="26.25863983154297,15.75518424987793,0,18.9059992980957,12.60436744689942,0"></path>
                <g id="Group-20" transform="translate(-0.000000, 172.316687)" stroke="#FFFFFF">
                    <path d="M0.114008743,0.114008743 L5.05058733,2.96422733" id="Stroke-18"></path>
                </g>
                <path d="M10.9061194,178.133284 L21.8122388,184.676956" id="Stroke-21" stroke="#FFFFFF" stroke-dasharray="0,18.9059992980957,12.60436744689942,0"></path>
                <path d="M21.8122388,184.676956 L205.76212,290.829851" id="Stroke-22" stroke="#FFFFFF" stroke-dasharray="0.92,0.92,0.92,0.92"></path>
                <g id="Group-28" transform="translate(-0.000000, 172.316687)" stroke="#FFFFFF">
                    <path d="M0.113936622,0.113834917 L5.61661971,1.58708641" id="Stroke-26"></path>
                </g>
                <path d="M11.633194,175.224985 L23.9934627,178.860358" id="Stroke-29" stroke="#FFFFFF" stroke-dasharray="0,18.9059992980957,12.60436744689942,0"></path>
                <path d="M1.1196458,172.660313 L229.755582,234.11803" id="Stroke-30" stroke="#FFFFFF" stroke-dasharray="26.25863983154297,15.75518424987793,0,18.9059992980957,12.60436744689942,0"></path>
                <path d="M-2.84217094e-13,172.316687 L5.81659702,172.316687" id="Stroke-32" stroke="#FFFFFF"></path>
                <path d="M12.3602687,172.316687 L25.447612,172.316687" id="Stroke-34" stroke="#FFFFFF" stroke-dasharray="0,18.9059992980957,12.60436744689942,0"></path>
                <path d="M0.509869706,173.056306 C0.509869706,173.056306 79.5910476,172.809766 237.753403,172.316687" id="Stroke-35" stroke="#FFFFFF" stroke-dasharray="0.92,0.92,0.92,0.92"></path>
                <g id="Group-50" transform="translate(0.000000, 0.000000)">
                    <path d="M237.759865,172.164921 L243.456076,172.164921" id="Stroke-36" stroke="#FFFFFF"></path>
                    <path d="M0.113924228,172.164921 L210.85438,50.4758836" id="Stroke-40" stroke="#00DBFF"></path>
                    <path d="M0.113924228,172.164921 L172.1828,0.0706434488" id="Stroke-42" stroke="#00DBFF"></path>
                    <path d="M0.113924228,172.164921 L170.316722,172.164921" id="Stroke-44" stroke="#FFFFFF"></path>
                    <path d="M0.113924228,172.164921 L235.164443,109.173981" id="Stroke-38" stroke="#FFFFFF" stroke-dasharray="26.25863983154297,15.75518424987793,0,18.9059992980957,12.60436744689942,0"></path>
                </g>
            </g>
        </g>
    </g>
</svg>