<?xml version="1.0" encoding="UTF-8"?>
<svg width="27px" height="26px" viewBox="0 0 27 26" version="1.1" xmlns="http://www.w3.org/2000/svg" xmlns:xlink="http://www.w3.org/1999/xlink">
    <!-- Generator: Sketch 51.1 (57501) - http://www.bohemiancoding.com/sketch -->
    <title>Group 2</title>
    <desc>Created with Sketch.</desc>
    <defs></defs>
    <g id="1920-copy" stroke="none" stroke-width="1" fill="none" fill-rule="evenodd">
        <g id="menu_desktop" transform="translate(-1843.000000, -34.000000)" fill="#FFFFFF">
            <g id="Group-2" transform="translate(1843.717031, 33.662656)">
                <g id="Group-12">
                    <path d="M30.36,12.88 L30.36,13.34 L30.36,13.8 L-4.6,13.8 C-4.6,13.8 -4.6,13.59392 -4.6,13.34 C-4.6,13.08608 -4.6,12.88 -4.6,12.88 L30.36,12.88 Z" id="Shape" transform="translate(12.880000, 13.340000) rotate(45.000000) translate(-12.880000, -13.340000) "></path>
                    <path d="M30.36,12.88 L30.36,13.34 L30.36,13.8 L-4.6,13.8 C-4.6,13.8 -4.6,13.59392 -4.6,13.34 C-4.6,13.08608 -4.6,12.88 -4.6,12.88 L30.36,12.88 Z" id="Shape" transform="translate(12.880000, 13.340000) scale(-1, 1) rotate(45.000000) translate(-12.880000, -13.340000) "></path>
                </g>
            </g>
        </g>
    </g>
</svg>