<?xml version="1.0" encoding="UTF-8"?>
<svg width="264px" height="229px" viewBox="0 0 264 229" version="1.1" xmlns="http://www.w3.org/2000/svg" xmlns:xlink="http://www.w3.org/1999/xlink">
    <!-- Generator: Sketch 51.2 (57519) - http://www.bohemiancoding.com/sketch -->
    <title>noun_342729_cc</title>
    <desc>Created with Sketch.</desc>
    <defs></defs>
    <g id="1920-copy" stroke="none" stroke-width="1" fill="none" fill-rule="evenodd">
        <g id="Custom-Preset-10-Copy-3" transform="translate(-851.000000, -543.000000)">
            <g id="noun_342729_cc" transform="translate(993.310589, 628.642503) scale(-1, 1) rotate(47.000000) translate(-993.310589, -628.642503) translate(848.310589, 519.142503)">
                <g id="Group" transform="translate(161.080000, 0.000000)">
                    <g transform="translate(0.000000, 0.000000)">
                        <path d="M127.88,107.503243 C127.88,89.0783784 120.775556,71.3621622 107.987556,58.6064865 L107.987556,53.6459459 C107.987556,39.472973 102.304,26.0086486 91.6473333,15.3789189 C70.334,-5.17189189 36.9431111,-4.46324324 16.3402222,16.7962162 C-3.55222222,37.347027 -5.68355556,62.1497297 14.2088889,82.7005405 C15.6297778,84.1178378 18.4715556,86.2437838 19.8924444,86.2437838 C22.0237778,86.2437838 23.4446667,84.8264865 23.4446667,82.7005405 C23.4446667,81.2832432 22.7342222,80.5745946 22.0237778,79.8659459 L22.0237778,79.8659459 C4.26266667,62.8583784 3.55222222,40.8902703 21.3133333,22.4654054 C39.0744444,4.04054054 68.2026667,4.04054054 85.9637778,21.0481081 C95.1995556,29.5518919 100.172667,41.5989189 100.172667,53.6459459 C100.172667,60.7324324 98.7517778,67.8189189 95.91,73.4881081 C95.1995556,75.6140541 95.91,77.74 97.3308889,78.4486486 C99.4622222,79.1572973 101.593556,78.4486486 102.304,77.0313514 C103.724889,74.1967568 105.145778,70.6535135 105.856222,67.8189189 C115.092,78.4486486 120.065111,92.6216216 120.065111,107.503243 C120.065111,130.888649 106.566667,152.148108 85.9637778,162.777838 C83.8324444,163.486486 83.122,165.612432 84.5428889,167.738378 C85.2533333,169.864324 87.3846667,170.572973 89.516,169.155676 C93.0682222,167.02973 97.3308889,164.903784 100.172667,162.069189 L100.172667,165.612432 C100.172667,177.659459 95.1995556,189.706486 85.9637778,198.21027 C67.4922222,215.926486 38.364,215.217838 21.3133333,196.792973 C3.55222222,178.368108 4.26266667,156.4 22.7342222,139.392432 C23.4446667,138.683784 24.1551111,137.975135 24.1551111,136.557838 L24.1551111,136.557838 C24.1551111,134.431892 22.7342222,133.014595 20.6028889,133.014595 C19.8924444,133.014595 18.4715556,133.723243 17.7611111,134.431892 L16.3402222,135.849189 C-4.97311111,156.4 -3.55222222,181.202703 16.3402222,202.462162 C36.9431111,223.721622 70.334,224.43027 91.6473333,203.879459 C102.304,193.958378 107.987556,180.494054 107.987556,165.612432 C107.987556,162.069189 107.987556,159.234595 107.277111,156.4 C120.065111,144.352973 127.88,126.636757 127.88,107.503243 Z" id="Shape" fill="#FFFFFF" fill-rule="nonzero"></path>
                        <ellipse id="Oval-3" stroke="#FFFFFF" stroke-width="6.44" cx="49.7311111" cy="176.242162" rx="14.2088889" ry="14.172973"></ellipse>
                        <ellipse id="Oval-3" stroke="#FFFFFF" stroke-width="6.44" cx="63.94" cy="154.982703" rx="7.10444444" ry="7.08648649"></ellipse>
                        <ellipse id="Oval-3" stroke="#FFFFFF" stroke-width="6.44" cx="85.2533333" cy="41.5989189" rx="14.2088889" ry="14.172973"></ellipse>
                        <ellipse id="Oval-3" stroke="#FFFFFF" stroke-width="6.44" cx="28.4177778" cy="55.7718919" rx="7.10444444" ry="7.08648649"></ellipse>
                    </g>
                </g>
                <g id="Group-6" transform="translate(133.880000, 107.760000) scale(-1, 1) translate(-133.880000, -107.760000) translate(0.880000, 71.760000)" fill="#FFFFFF">
                    <rect id="Rectangle-5" x="112.955086" y="64.4710536" width="152.145414" height="7.09186224" rx="3.54593112"></rect>
                    <rect id="Rectangle-5" x="134.80167" y="50.2873291" width="88.7775772" height="7.09186224" rx="3.54593112"></rect>
                    <rect id="Rectangle-5" x="108.227169" y="50.2873291" width="12.2276195" height="7.09186224" rx="3.54593112"></rect>
                    <rect id="Rectangle-5" x="0.625554536" y="50.2873291" width="7.17344094" height="7.09186224" rx="3.54593112"></rect>
                    <rect id="Rectangle-5" x="58.0130821" y="0.644293367" width="7.17344094" height="7.09186224" rx="3.54593112"></rect>
                    <rect id="Rectangle-5" x="187.135019" y="36.1036046" width="12.2276195" height="7.09186224" rx="3.54593112"></rect>
                    <rect id="Rectangle-5" x="84.5875834" y="36.1036046" width="88.7775772" height="7.09186224" rx="3.54593112"></rect>
                    <rect id="Rectangle-5" x="98.7713346" y="21.9198801" width="115.352079" height="7.09186224" rx="3.54593112"></rect>
                </g>
            </g>
        </g>
    </g>
</svg>