<?xml version="1.0" encoding="UTF-8"?>
<svg width="58px" height="50px" viewBox="0 0 58 50" version="1.1" xmlns="http://www.w3.org/2000/svg" xmlns:xlink="http://www.w3.org/1999/xlink">
    <!-- Generator: Sketch 51.1 (57501) - http://www.bohemiancoding.com/sketch -->
    <title>Page 1</title>
    <desc>Created with Sketch.</desc>
    <defs></defs>
    <g id="Page-1" stroke="none" stroke-width="1" fill="none" fill-rule="evenodd">
        <g id="A00" transform="translate(-131.000000, -1264.000000)" fill="#35A2CD">
            <g id="Group-17" transform="translate(28.000000, 914.000000)">
                <g id="Page-1" transform="translate(103.000000, 350.000000)">
                    <path d="M29.2242925,39.4740197 C28.7621014,39.378495 26.5937066,39.7500173 24.5271409,38.6424264 C24.1143934,38.4212233 23.5997037,38.5748053 23.3773768,38.9850325 C23.1550499,39.3953722 23.3092644,39.9073123 23.7218987,40.1284029 C23.89795,40.2228024 24.0744538,40.3085383 24.2511839,40.3865107 C22.5196361,41.1428319 21.12073,42.5080806 20.3036078,44.5260247 C19.5282355,42.6382596 18.1993653,41.2030271 16.3542214,40.3842604 C18.2360238,39.5491792 19.5453202,38.0887435 20.3036078,36.2428337 C20.4660818,36.6415844 20.6142998,36.9185947 20.619957,36.9301837 C20.832893,37.3451364 21.3443016,37.5098574 21.761801,37.2981054 C22.1791873,37.0861285 22.3449425,36.5779013 22.1317802,36.162611 C22.129291,36.1514721 21.1018351,34.2866599 21.223238,31.8045943 C21.292595,31.3393476 20.9647052,30.8769138 20.4647241,30.7853271 C20.009661,30.6962158 19.5054937,30.9833523 19.3881639,31.491692 C19.327519,31.755088 19.7665157,36.3125926 16.4405499,38.4271865 C14.2753231,39.8007612 11.8171678,39.3738819 11.3591629,39.4772826 C10.3909942,39.696573 10.3917862,41.0722854 11.3591629,41.2912383 C11.8115106,41.3927262 14.317865,40.9668595 16.4838838,42.3689004 C19.7003268,44.4528904 19.3453957,48.8895546 19.3667798,49.0881424 C19.3667798,50.1288998 20.8621972,50.363042 21.1922367,49.3478254 C21.3039093,49.002069 20.8341376,44.6019719 24.0100752,42.4394468 C26.1024376,41.0136655 28.6953468,41.3575092 29.1466761,41.3071028 C30.1792235,41.1917756 30.2714355,39.6943227 29.2242925,39.4740197" id="Fill-1"></path>
                    <path d="M57.0764084,22.50859 C55.4999802,22.3344432 44.2626556,23.9045085 39.3513914,13.6482583 C36.7695347,8.25348163 37.4319266,3.3628502 37.2912171,2.74927726 C37.1644177,2.19767907 36.6400913,1.86710893 36.1388715,1.9309132 C35.567182,1.99528919 35.1879334,2.46604577 35.1879334,2.94023268 L35.1879334,5.16583532 C34.7983385,12.8168589 31.2978471,19.3299254 23.9470451,21.6224196 C19.7023113,22.9468727 16.0170813,22.3748068 15.3291686,22.5244839 C14.2257953,22.7735263 14.2175183,24.3497662 15.3408944,24.5980082 C16.3028685,24.7999407 23.5404363,23.6336262 29.1607655,28.2763586 C29.5272537,28.5789143 30.0710082,28.5288314 30.3751888,28.1645296 C30.6794844,27.8001135 30.6291325,27.2592637 30.2627592,26.9565936 C28.3343276,25.3635451 26.0227387,24.225245 23.3776548,23.563876 C30.341161,21.8192066 34.6152093,16.8751763 36.2510711,9.94978327 C37.8733678,16.8328688 42.1121238,21.8206931 49.1503532,23.5565579 C42.1823635,25.290822 37.8492265,30.2307359 36.2410697,37.1370334 C35.64248,34.6056734 34.6436041,32.1829407 33.1422439,30.0669945 C32.8674927,29.6800525 32.3294861,29.5877764 31.940581,29.8607169 C31.5513309,30.1340004 31.4585593,30.669133 31.7330806,31.0559606 C32.2622353,31.8018302 32.738624,32.6144771 33.1492564,33.4714896 C35.5852305,38.5616523 35.1547103,43.7403177 35.1898877,44.2398891 C35.2809349,45.5158601 37.3739874,45.5802361 37.3085759,44.0023954 C37.1902834,41.1584174 37.4119237,31.523973 45.2356657,26.9523629 C50.5149126,23.8705481 56.387691,24.7707829 57.1715941,24.5953783 C58.3532543,24.3286124 58.2254202,22.6368846 57.0764084,22.50859" id="Fill-3"></path>
                    <path d="M10.5780016,18.3908318 C10.6297832,18.1041592 10.4034363,15.9235912 11.4775103,13.8130143 C11.6880288,13.3992174 11.5195688,12.8949687 11.1012452,12.6867844 C10.6829216,12.4783766 10.1730191,12.6451923 9.96250058,13.0588775 C9.8553193,13.2696333 9.75571306,13.4881038 9.66379493,13.7136181 C8.88933099,11.8364937 7.5613232,10.4091682 5.71595088,9.59454383 C7.59614581,8.76426655 8.90436803,7.31334973 9.66221209,5.47904741 C10.419717,7.32676655 11.7171984,8.77142218 13.6055337,9.59745081 C13.4204538,9.67828712 13.2353739,9.76739714 13.0516507,9.86556351 C12.6396585,10.0859347 12.4863485,10.5947674 12.7093037,11.0023032 C12.9321458,11.4096154 13.4465708,11.5612254 13.8587891,11.3408542 C15.8602979,10.2700805 18.0471127,10.5612254 18.4990152,10.5114714 C19.5363446,10.3939624 19.6151478,8.90693202 18.5766877,8.68957961 C18.0024538,8.57184705 13.4752881,9.36444544 11.4528632,5.32967352 C10.502138,3.43678444 10.5681653,1.33213327 10.5811673,1.06815742 C10.6492296,0.611538462 10.3284772,0.147093023 9.82241871,0.0557468694 C9.37051618,-0.0326923077 8.86423158,0.250849732 8.7473271,0.759011628 C8.68695283,1.01952147 9.12528811,5.54847943 5.80210292,7.64977639 C3.71432904,8.96674866 1.27765068,8.62663238 0.81839922,8.67728086 C-0.213503314,8.79344812 -0.29694191,10.2658318 0.724332943,10.4957066 C1.21750253,10.6055009 3.66899181,10.1655411 5.84517895,11.5664803 C8.16450058,13.0607782 8.64647719,15.8048524 8.7261848,17.3221825 C8.73715166,18.1894678 8.69837193,18.2903175 8.76722573,18.5015206 C8.89396647,18.8892665 9.25225497,19.1497764 9.65870721,19.1497764 C10.1250815,19.15 10.5031556,18.8088775 10.5780016,18.3908318" id="Fill-5"></path>
                </g>
            </g>
        </g>
    </g>
</svg>