<?xml version="1.0" encoding="UTF-8" standalone="no"?>
<svg width="122px" height="122px" viewBox="0 0 122 122" version="1.1" xmlns="http://www.w3.org/2000/svg" xmlns:xlink="http://www.w3.org/1999/xlink">
    <style>
      @keyframes a0_t { 0% {
        transform: translate(0,0) scale(1,1);
      } 20% {
        transform: translate(-18px,0) scale(0,0);
      } 50% {
        transform: translate(0,0) scale(1,1);
      }}
      @keyframes a1_t { 60% {
        transform: translate(0,0) scale(1,1);
      } 80% {
        transform: translate(-5px,-17px) scale(0,0);
      } 100% {
        transform: translate(0,0) scale(1,1);
      }}
      @keyframes a2_t { 40% {
        transform: translate(0,0) scale(1,1);
      } 60% {
        transform: translate(-40px,-40px) scale(0,0);
      } 80% {
        transform: translate(0,0) scale(1,1);
      }}
    </style>
    <g stroke="none" fill="white" fill-rule="evenodd">
        <circle id="Oval-2" fill="rgba(255,255,255,0.2)" cx="60" cy="60" r="60"></circle>
        <g id="Page-1" stroke-width="1" transform="translate(17.344000, 23.184000)">
            <path transform-origin="center" style="animation: a0_t 0.6s linear both" d="M47.6438245,63.9221489 C46.8916324,63.7658583 43.3626819,64.3737163 39.9994531,62.5615558 C39.327728,62.1996392 38.4900972,62.4509191 38.1282716,63.1221032 C37.766446,63.7934715 38.0174222,64.631071 38.6889631,64.9928036 C38.9754775,65.1472533 39.2627283,65.2875282 39.5503474,65.415101 C36.7323429,66.6525393 34.4556957,68.8862608 33.1258715,72.1878757 C31.8639932,69.0992504 29.7013257,66.7510263 26.6984494,65.4114193 C29.7609855,64.0451195 31.8917976,61.6556597 33.1258715,58.6355151 C33.3902896,59.2879223 33.6315067,59.7411465 33.6407134,59.7601075 C33.9872558,60.4390234 34.8195468,60.7085279 35.4990055,60.3620747 C36.1782802,60.0152532 36.4480382,59.1837286 36.1011275,58.5042605 C36.0970766,58.4860358 34.4249451,55.4349644 34.6225221,51.3739872 C34.735397,50.6127841 34.2017733,49.8561832 33.38808,49.7063357 C32.6474884,49.5605382 31.8269821,50.0303303 31.6360339,50.862039 C31.5373374,51.2929886 32.2517819,58.7496495 26.8389446,62.2093959 C23.3151499,64.4567399 19.3146293,63.7583107 18.5692502,63.9274874 C16.9936055,64.2862746 16.9948945,66.5371162 18.5692502,66.8953511 C19.3054225,67.0613983 23.3843847,66.364626 26.9094683,68.6585442 C32.1440628,72.0682187 31.5664308,79.3271693 31.6012324,79.6520843 C31.6012324,81.3548965 34.0349468,81.7379833 34.5720691,80.0769589 C34.7538105,79.5112571 33.9892813,72.312135 39.1579554,68.7739673 C42.563167,66.4412065 46.7829926,67.0037788 47.5175078,66.9213075 C49.1979253,66.7326175 49.3479955,64.2825928 47.6438245,63.9221489" id="Fill-1"></path>
            <path transform-origin="center" style="animation: a1_t 0.6s linear both" d="M92.0696924,36.7955721 C89.5191403,36.512312 71.3379241,39.0661173 63.3918374,22.383711 C59.2145713,13.6087831 60.2862757,5.65387762 60.0586175,4.65586442 C59.8534648,3.75865687 59.0051408,3.2209647 58.1942017,3.32474617 C57.2692476,3.42945758 56.6556495,4.1951714 56.6556495,4.96646487 L56.6556495,8.58654109 C56.0253117,21.03139 50.3617581,31.6252835 38.4686674,35.3541628 C31.6009808,37.5084653 25.6385329,36.5779658 24.5255376,36.8214245 C22.7403558,37.226507 22.7269641,39.7903557 24.5445092,40.1941363 C26.1009169,40.5225916 37.8108024,38.625511 46.9041074,46.1771938 C47.4970601,46.6693189 48.3768174,46.587856 48.8689607,45.9952973 C49.3612899,45.4025526 49.279824,44.5228279 48.6870574,44.0305169 C45.566988,41.4393279 41.8269966,39.5878144 37.5474332,38.5120581 C48.8139061,35.6742487 55.7290214,27.6324867 58.375733,16.3679195 C61.0004972,27.563671 67.858512,35.6766665 79.2458818,38.5001549 C67.9721551,41.3210394 60.9614382,49.3561058 58.3595514,60.589613 C57.3910745,56.472204 55.7749622,52.531484 53.345865,49.0897706 C52.9013365,48.4603862 52.030879,48.3102936 51.4016572,48.7542477 C50.7718775,49.1987597 50.6217794,50.0691849 51.0659359,50.6983833 C51.9220718,51.911585 52.6928359,53.2334038 53.3572107,54.6273861 C57.2984489,62.9068412 56.6018969,71.3302512 56.6588114,72.142834 C56.8061196,74.2182774 60.1925341,74.3229888 60.0867028,71.7565363 C59.8953138,67.1306354 60.2539125,51.4596334 72.9121874,44.0236353 C81.4536447,39.0108787 90.9553952,40.4751646 92.2236964,40.1898586 C94.135541,39.7559479 93.9287144,37.004251 92.0696924,36.7955721" id="Fill-3"></path>
            <path transform-origin="center" style="animation: a2_t 0.6s linear both" d="M17.2293793,29.4193093 C17.3137208,28.9597343 16.9450488,25.4639895 18.6944915,22.0804498 C19.0373823,21.4170774 18.762996,20.6086987 18.0816341,20.2749513 C17.4002722,19.9408453 16.5697473,20.2082735 16.2268565,20.8714666 C16.0522806,21.2093366 15.8900428,21.5595743 15.7403273,21.9211042 C14.478887,18.9118205 12.3158393,16.6236249 9.31011254,15.3176721 C12.372558,13.9866256 14.5033792,11.66061 15.7377492,8.71997578 C16.9715667,11.682119 19.0848935,13.998097 22.1605979,15.3223324 C21.8591413,15.4519239 21.5576847,15.5947793 21.2584379,15.7521532 C20.5873885,16.105438 20.3376786,16.9211656 20.7008261,17.5745005 C21.0637894,18.2274768 21.9016804,18.4705282 22.5730981,18.1172434 C25.8331385,16.4006486 29.3950038,16.8673932 30.1310588,16.7876308 C31.8206522,16.5992481 31.949006,14.2153376 30.2575712,13.8668923 C29.3222639,13.6781511 21.9484549,14.9487933 18.6543464,8.48050928 C17.1058134,5.44595254 17.2133581,2.07191261 17.2345355,1.64872368 C17.345395,0.916701844 16.8229561,0.172133109 15.9986924,0.0256928926 C15.2626374,-0.116087047 14.4380053,0.338469119 14.2475923,1.15312124 C14.1492552,1.57075368 14.863212,8.83128468 9.45043626,12.1999474 C6.04988795,14.3112317 2.08104699,13.7659794 1.33302212,13.8471757 C-0.34773194,14.0334076 -0.483636015,16.3938374 1.17980777,16.7623577 C1.9830782,16.9383728 5.97604305,16.2330579 9.52059812,18.4789525 C13.2982895,20.8745137 14.0833288,25.2736351 14.2131559,27.7061201 C14.2310186,29.0964955 14.1678546,29.2581713 14.280003,29.5967582 C14.4864373,30.2183674 15.0700145,30.6359998 15.7320405,30.6359998 C16.4916669,30.6363583 17.1074707,30.0894928 17.2293793,29.4193093" id="Fill-5"></path>
        </g>
    </g>
</svg>
