<?xml version="1.0" encoding="UTF-8"?>
<svg width="57px" height="38px" viewBox="0 0 57 38" version="1.1" xmlns="http://www.w3.org/2000/svg" xmlns:xlink="http://www.w3.org/1999/xlink">
    <!-- Generator: Sketch 51.1 (57501) - http://www.bohemiancoding.com/sketch -->
    <title>Group 11</title>
    <desc>Created with Sketch.</desc>
    <defs></defs>
    <g id="Page-1" stroke="none" stroke-width="1" fill="none" fill-rule="evenodd">
        <g id="A00" transform="translate(-132.000000, -1157.000000)">
            <g id="Group-17" transform="translate(28.000000, 914.000000)">
                <g id="Group-11" transform="translate(105.000000, 244.000000)">
                    <g id="Group-10" transform="translate(32.241379, 0.000000)" stroke="#35A2CD" stroke-linecap="round" stroke-linejoin="round" stroke-width="1.92">
                        <g id="Page-1" transform="translate(0.000000, 13.263158)">
                            <polyline id="Stroke-1" points="15.1724138 5.21052632 0 5.21052632 5.29830323 0"></polyline>
                            <path d="M0,5.21052632 L5.29830323,10.4210526" id="Stroke-3"></path>
                        </g>
                        <g id="Page-1-Copy" transform="translate(7.586207, 25.578947)">
                            <polyline id="Stroke-1" points="15.1724138 5.21052632 0 5.21052632 5.29830323 0"></polyline>
                            <path d="M0,5.21052632 L5.29830323,10.4210526" id="Stroke-3"></path>
                        </g>
                        <g id="Page-1-Copy-2" transform="translate(7.586207, 0.000000)">
                            <polyline id="Stroke-1" points="15.1724138 5.21052632 0 5.21052632 5.29830323 0"></polyline>
                            <path d="M0,5.21052632 L5.29830323,10.4210526" id="Stroke-3"></path>
                        </g>
                    </g>
                    <ellipse id="Oval" stroke="#4C4C4C" stroke-width="1.92" stroke-linecap="round" stroke-linejoin="round" cx="5.21551724" cy="9" rx="5.21551724" ry="5.21052632"></ellipse>
                    <ellipse id="Oval-Copy" stroke="#4C4C4C" stroke-width="1.92" stroke-linecap="round" stroke-linejoin="round" cx="2.37068966" cy="23.2105263" rx="2.37068966" ry="2.36842105"></ellipse>
                    <ellipse id="Oval-Copy-2" stroke="#4C4C4C" stroke-width="1.92" stroke-linecap="round" stroke-linejoin="round" cx="23.2327586" cy="5.21052632" rx="3.31896552" ry="3.31578947"></ellipse>
                    <ellipse id="Oval-Copy-3" stroke="#4C4C4C" stroke-width="1.92" stroke-linecap="round" stroke-linejoin="round" cx="23.2327586" cy="31.7368421" rx="3.31896552" ry="3.31578947"></ellipse>
                    <g id="Page-1" transform="translate(2.844828, 12.315789)" fill="#4C4C4C">
                        <path d="M13.5789588,0.871161713 C12.8364405,3.62910928 13.4693709,6.67196878 15.3545635,8.79337127 C17.2543545,10.9315577 20.1380374,11.7382211 22.8479393,11.2131543 C24.3519738,10.9218189 23.7150439,8.54368481 22.2148089,8.83439859 C18.1098604,9.62966551 14.7750272,5.61188916 15.8749063,1.52697719 C16.2874609,-0.00491659668 13.9909135,-0.658452781 13.5789588,0.871161713" id="Fill-1"></path>
                        <path d="M0.30309674,10.3448459 C-0.439421588,13.1027935 0.193508794,16.145653 2.07870143,18.2670555 C3.97849247,20.4052419 6.86217528,21.2119053 9.57207721,20.6868385 C11.0761118,20.3955031 10.4391818,18.017369 8.93894685,18.3080828 C4.83399837,19.1033497 1.49916518,15.0855734 2.5990442,11.0006614 C3.01159882,9.46876761 0.715051428,8.81523143 0.30309674,10.3448459" id="Fill-1-Copy" transform="translate(5.215517, 15.157895) scale(-1, 1) translate(-5.215517, -15.157895) "></path>
                    </g>
                </g>
            </g>
        </g>
    </g>
</svg>