<?xml version="1.0" encoding="UTF-8"?>
<svg width="32px" height="32px" viewBox="0 0 32 32" version="1.1" xmlns="http://www.w3.org/2000/svg" xmlns:xlink="http://www.w3.org/1999/xlink">
    <!-- Generator: Sketch 51.1 (57501) - http://www.bohemiancoding.com/sketch -->
    <title>Fill 5</title>
    <desc>Created with Sketch.</desc>
    <defs></defs>
    <g id="1920-copy" stroke="none" stroke-width="1" fill="none" fill-rule="evenodd">
        <g id="Custom-Preset-10-Copy" transform="translate(-984.000000, -441.000000)" fill="#FFFFFF">
            <g id="Group-8" transform="translate(859.816406, 418.520625)">
                <g id="Page-1" transform="translate(124.344000, 23.184000)">
                    <path d="M17.2293793,29.4193093 C17.3137208,28.9597343 16.9450488,25.4639895 18.6944915,22.0804498 C19.0373823,21.4170774 18.762996,20.6086987 18.0816341,20.2749513 C17.4002722,19.9408453 16.5697473,20.2082735 16.2268565,20.8714666 C16.0522806,21.2093366 15.8900428,21.5595743 15.7403273,21.9211042 C14.478887,18.9118205 12.3158393,16.6236249 9.31011254,15.3176721 C12.372558,13.9866256 14.5033792,11.66061 15.7377492,8.71997578 C16.9715667,11.682119 19.0848935,13.998097 22.1605979,15.3223324 C21.8591413,15.4519239 21.5576847,15.5947793 21.2584379,15.7521532 C20.5873885,16.105438 20.3376786,16.9211656 20.7008261,17.5745005 C21.0637894,18.2274768 21.9016804,18.4705282 22.5730981,18.1172434 C25.8331385,16.4006486 29.3950038,16.8673932 30.1310588,16.7876308 C31.8206522,16.5992481 31.949006,14.2153376 30.2575712,13.8668923 C29.3222639,13.6781511 21.9484549,14.9487933 18.6543464,8.48050928 C17.1058134,5.44595254 17.2133581,2.07191261 17.2345355,1.64872368 C17.345395,0.916701844 16.8229561,0.172133109 15.9986924,0.0256928926 C15.2626374,-0.116087047 14.4380053,0.338469119 14.2475923,1.15312124 C14.1492552,1.57075368 14.863212,8.83128468 9.45043626,12.1999474 C6.04988795,14.3112317 2.08104699,13.7659794 1.33302212,13.8471757 C-0.34773194,14.0334076 -0.483636015,16.3938374 1.17980777,16.7623577 C1.9830782,16.9383728 5.97604305,16.2330579 9.52059812,18.4789525 C13.2982895,20.8745137 14.0833288,25.2736351 14.2131559,27.7061201 C14.2310186,29.0964955 14.1678546,29.2581713 14.280003,29.5967582 C14.4864373,30.2183674 15.0700145,30.6359998 15.7320405,30.6359998 C16.4916669,30.6363583 17.1074707,30.0894928 17.2293793,29.4193093" id="Fill-5"></path>
                </g>
            </g>
        </g>
    </g>
</svg>