<?xml version="1.0" encoding="UTF-8"?>
<svg width="89px" height="43px" viewBox="0 0 89 43" version="1.1" xmlns="http://www.w3.org/2000/svg" xmlns:xlink="http://www.w3.org/1999/xlink">
    <!-- Generator: Sketch 50.2 (55047) - http://www.bohemiancoding.com/sketch -->
    <title>Group 3</title>
    <desc>Created with Sketch.</desc>
    <defs></defs>
    <g id="1920-copy" stroke="none" stroke-width="1" fill="none" fill-rule="evenodd">
        <g id="Custom-Preset-10-Copy-2" transform="translate(-346.000000, -549.000000)" fill="#FFFFFF">
            <g id="Group-2" transform="translate(339.816406, 396.241873)">
                <g id="Group-3" transform="translate(6.440000, 152.800000)">
                    <rect id="Rectangle-5" x="46.5821011" y="20.033561" width="41.2072433" height="2.22595122" rx="1.11297561"></rect>
                    <rect id="Rectangle-5" x="34.0407662" y="20.033561" width="7.1664771" height="2.22595122" rx="1.11297561"></rect>
                    <rect id="Rectangle-5" x="26.8742891" y="20.033561" width="3.58323855" height="2.22595122" rx="1.11297561"></rect>
                    <rect id="Rectangle-5" x="24.5236291" y="28.9373659" width="2.23952409" height="2.22595122" rx="1.11297561"></rect>
                    <rect id="Rectangle-5" x="18.8643301" y="37.8411707" width="2.23952409" height="2.22595122" rx="1.11297561"></rect>
                    <rect id="Rectangle-5" x="13.2050311" y="26.7114146" width="2.23952409" height="2.22595122" rx="1.11297561"></rect>
                    <rect id="Rectangle-5" x="13.2050311" y="13.3557073" width="2.35804126" height="2.22595122" rx="1.11297561"></rect>
                    <rect id="Rectangle-5" x="17.9161927" y="2.22595122" width="2.23952409" height="2.22595122" rx="1.11297561"></rect>
                    <rect id="Rectangle-5" x="8.95809637" y="0" width="2.23952409" height="2.22595122" rx="1.11297561"></rect>
                    <rect id="Rectangle-5" x="3.77286602" y="6.67785366" width="2.23952409" height="2.22595122" rx="1.11297561"></rect>
                    <rect id="Rectangle-5" x="0" y="20.033561" width="2.23952409" height="2.22595122" rx="1.11297561"></rect>
                    <rect id="Rectangle-5" x="7.54573203" y="20.033561" width="2.23952409" height="2.22595122" rx="1.11297561"></rect>
                    <rect id="Rectangle-5" x="3.77286602" y="33.3892683" width="2.23952409" height="2.22595122" rx="1.11297561"></rect>
                    <rect id="Rectangle-5" x="9.43216504" y="40.067122" width="2.23952409" height="2.22595122" rx="1.11297561"></rect>
                    <rect id="Rectangle-5" x="17.9161927" y="20.033561" width="3.58323855" height="2.22595122" rx="1.11297561"></rect>
                    <rect id="Rectangle-5" x="24.5236291" y="11.1297561" width="2.35804126" height="2.22595122" rx="1.11297561"></rect>
                    <g id="Group-5" transform="translate(58.074684, 31.553781) rotate(-4.000000) translate(-58.074684, -31.553781) translate(28.074684, 27.053781)">
                        <rect id="Rectangle-5" x="38.415624" y="-3.33066907e-15" width="21.4994313" height="2.22595122" rx="1.11297561"></rect>
                        <rect id="Rectangle-5" x="29.4575277" y="1.72528658e-13" width="5.37485782" height="2.22595122" rx="1.11297561"></rect>
                        <rect id="Rectangle-5" x="0.361539815" y="6.39772353" width="5.37485782" height="2.22595122" rx="1.11297561"></rect>
                        <rect id="Rectangle-5" x="16.9161927" y="6.59472477e-14" width="8.95809637" height="2.22595122" rx="1.11297561"></rect>
                        <rect id="Rectangle-5" x="7.95809637" y="2.04503081e-13" width="3.58323855" height="2.22595122" rx="1.11297561"></rect>
                    </g>
                    <g id="Group-4" transform="translate(58.855043, 10.983350) rotate(4.000000) translate(-58.855043, -10.983350) translate(28.855043, 6.483350)">
                        <rect id="Rectangle-5" x="37.6240048" y="6.67785366" width="21.4994313" height="2.22595122" rx="1.11297561"></rect>
                        <rect id="Rectangle-5" x="23.2910506" y="6.67785366" width="8.95809637" height="2.22595122" rx="1.11297561"></rect>
                        <rect id="Rectangle-5" x="14.3329542" y="6.67785366" width="3.58323855" height="2.22595122" rx="1.11297561"></rect>
                        <rect id="Rectangle-5" x="1.75859327e-13" y="1.22124533e-14" width="5.37485782" height="2.22595122" rx="1.11297561"></rect>
                        <rect id="Rectangle-5" x="5.37485782" y="6.67785366" width="3.58323855" height="2.22595122" rx="1.11297561"></rect>
                    </g>
                </g>
            </g>
        </g>
    </g>
</svg>