<?xml version="1.0" encoding="UTF-8"?>
<svg width="90px" height="69px" viewBox="0 0 90 69" version="1.1" xmlns="http://www.w3.org/2000/svg" xmlns:xlink="http://www.w3.org/1999/xlink">
    <!-- Generator: Sketch 50.2 (55047) - http://www.bohemiancoding.com/sketch -->
    <title>noun_342729_cc</title>
    <desc>Created with Sketch.</desc>
    <defs></defs>
    <g id="1920-copy" stroke="none" stroke-width="1" fill="none" fill-rule="evenodd">
        <g id="Custom-Preset-10-Copy-2" transform="translate(-347.000000, -397.000000)">
            <g id="Group-2" transform="translate(339.816406, 396.241873)">
                <g id="noun_342729_cc" transform="translate(52.520000, 35.500000) scale(-1, 1) translate(-52.520000, -35.500000) translate(7.520000, 1.000000)">
                    <g id="Group" transform="translate(49.713659, 0.000000)">
                        <g>
                            <path d="M39.9863415,33.870375 C39.9863415,28.114625 37.764878,22.58025 33.7662439,18.5955 L33.7662439,17.045875 C33.7662439,12.618375 31.9890732,8.41225 28.656878,5.091625 C21.9924878,-1.32825 11.5516098,-1.106875 5.10936585,5.534375 C-1.11073171,11.95425 -1.77717073,19.702375 4.44292683,26.12225 C4.88721951,26.565 5.77580488,27.229125 6.22009756,27.229125 C6.88653659,27.229125 7.33082927,26.786375 7.33082927,26.12225 C7.33082927,25.6795 7.10868293,25.458125 6.88653659,25.23675 L6.88653659,25.23675 C1.33287805,19.92375 1.11073171,13.061125 6.66439024,7.305375 C12.2180488,1.549625 21.3260488,1.549625 26.8797073,6.862625 C29.7676098,9.519125 31.3226341,13.2825 31.3226341,17.045875 C31.3226341,19.259625 30.8783415,21.473375 29.9897561,23.244375 C29.7676098,23.9085 29.9897561,24.572625 30.4340488,24.794 C31.1004878,25.015375 31.7669268,24.794 31.9890732,24.35125 C32.4333659,23.46575 32.8776585,22.358875 33.0998049,21.473375 C35.9877073,24.794 37.5427317,29.2215 37.5427317,33.870375 C37.5427317,41.17575 33.3219512,47.817 26.8797073,51.137625 C26.2132683,51.359 25.991122,52.023125 26.4354146,52.68725 C26.657561,53.351375 27.324,53.57275 27.990439,53.13 C29.1011707,52.465875 30.4340488,51.80175 31.3226341,50.91625 L31.3226341,52.023125 C31.3226341,55.7865 29.7676098,59.549875 26.8797073,62.206375 C21.1039024,67.74075 11.9959024,67.519375 6.66439024,61.763625 C1.11073171,56.007875 1.33287805,49.14525 7.10868293,43.83225 C7.33082927,43.610875 7.55297561,43.3895 7.55297561,42.94675 L7.55297561,42.94675 C7.55297561,42.282625 7.10868293,41.839875 6.4422439,41.839875 C6.22009756,41.839875 5.77580488,42.06125 5.55365854,42.282625 L5.10936585,42.725375 C-1.55502439,49.14525 -1.11073171,56.893375 5.10936585,63.534625 C11.5516098,70.175875 21.9924878,70.39725 28.656878,63.977375 C31.9890732,60.878125 33.7662439,56.672 33.7662439,52.023125 C33.7662439,50.91625 33.7662439,50.03075 33.5440976,49.14525 C37.5427317,45.381875 39.9863415,39.8475 39.9863415,33.870375 Z" id="Shape" fill="#FFFFFF" fill-rule="nonzero"></path>
                            <ellipse id="Oval-3" stroke="#FFFFFF" stroke-width="1.47200002" cx="15.5502439" cy="55.34375" rx="4.44292683" ry="4.4275"></ellipse>
                            <ellipse id="Oval-3" stroke="#FFFFFF" stroke-width="1.47200002" cx="19.9931707" cy="48.7025" rx="2.22146341" ry="2.21375"></ellipse>
                            <ellipse id="Oval-3" stroke="#FFFFFF" stroke-width="1.47200002" cx="26.657561" cy="13.2825" rx="4.44292683" ry="4.4275"></ellipse>
                            <ellipse id="Oval-3" stroke="#FFFFFF" stroke-width="1.47200002" cx="8.88585366" cy="17.71" rx="2.22146341" ry="2.21375"></ellipse>
                        </g>
                    </g>
                    <g id="Group-6" transform="translate(41.535610, 33.637500) scale(-1, 1) translate(-41.535610, -33.637500) translate(0.035610, 22.137500)" fill="#FFFFFF">
                        <rect id="Rectangle-5" x="35.4423783" y="20.587875" width="47.1162269" height="2.21375" rx="1.106875"></rect>
                        <rect id="Rectangle-5" x="42.2078049" y="16.160375" width="27.4925439" height="2.21375" rx="1.106875"></rect>
                        <rect id="Rectangle-5" x="33.9782421" y="16.160375" width="3.78663595" height="2.21375" rx="1.106875"></rect>
                        <rect id="Rectangle-5" x="0.656290883" y="16.160375" width="2.22146341" height="2.21375" rx="1.106875"></rect>
                        <rect id="Rectangle-5" x="18.4279982" y="0.664125" width="2.22146341" height="2.21375" rx="1.106875"></rect>
                        <rect id="Rectangle-5" x="58.4143397" y="11.732875" width="3.78663595" height="2.21375" rx="1.106875"></rect>
                        <rect id="Rectangle-5" x="26.657561" y="11.732875" width="27.4925439" height="2.21375" rx="1.106875"></rect>
                        <rect id="Rectangle-5" x="31.0499697" y="7.305375" width="35.7221066" height="2.21375" rx="1.106875"></rect>
                    </g>
                </g>
            </g>
        </g>
    </g>
</svg>