<?xml version="1.0" encoding="UTF-8"?>
<svg width="175px" height="230px" viewBox="0 0 175 230" version="1.1" xmlns="http://www.w3.org/2000/svg" xmlns:xlink="http://www.w3.org/1999/xlink">
    <!-- Generator: Sketch 51.2 (57519) - http://www.bohemiancoding.com/sketch -->
    <title>Group 3</title>
    <desc>Created with Sketch.</desc>
    <defs></defs>
    <g id="1920-copy" stroke="none" stroke-width="1" fill="none" fill-rule="evenodd">
        <g id="Custom-Preset-10-Copy-4" transform="translate(-980.000000, -566.000000)" fill="#FFFFFF">
            <g id="Group-3" transform="translate(1080.528512, 678.499025) rotate(300.000000) translate(-1080.528512, -678.499025) translate(956.528512, 618.999025)">
                <rect id="Rectangle-5" x="130.129645" y="55.9648473" width="115.114686" height="6.21831637" rx="3.10915818"></rect>
                <rect id="Rectangle-5" x="95.0947405" y="55.9648473" width="20.0199454" height="6.21831637" rx="3.10915818"></rect>
                <rect id="Rectangle-5" x="75.0747951" y="55.9648473" width="10.0099727" height="6.21831637" rx="3.10915818"></rect>
                <rect id="Rectangle-5" x="68.5080979" y="80.8381128" width="6.25623293" height="6.21831637" rx="3.10915818"></rect>
                <rect id="Rectangle-5" x="52.6985369" y="105.711378" width="6.25623293" height="6.21831637" rx="3.10915818"></rect>
                <rect id="Rectangle-5" x="36.8889758" y="74.6197964" width="6.25623293" height="6.21831637" rx="3.10915818"></rect>
                <rect id="Rectangle-5" x="36.8889758" y="37.3098982" width="6.58731711" height="6.21831637" rx="3.10915818"></rect>
                <rect id="Rectangle-5" x="50.0498634" y="6.21831637" width="6.25623293" height="6.21831637" rx="3.10915818"></rect>
                <rect id="Rectangle-5" x="25.0249317" y="0" width="6.25623293" height="6.21831637" rx="3.10915818"></rect>
                <rect id="Rectangle-5" x="10.5397074" y="18.6549491" width="6.25623293" height="6.21831637" rx="3.10915818"></rect>
                <rect id="Rectangle-5" x="0" y="55.9648473" width="6.25623293" height="6.21831637" rx="3.10915818"></rect>
                <rect id="Rectangle-5" x="21.0794148" y="55.9648473" width="6.25623293" height="6.21831637" rx="3.10915818"></rect>
                <rect id="Rectangle-5" x="10.5397074" y="93.2747455" width="6.25623293" height="6.21831637" rx="3.10915818"></rect>
                <rect id="Rectangle-5" x="26.3492684" y="111.929695" width="6.25623293" height="6.21831637" rx="3.10915818"></rect>
                <rect id="Rectangle-5" x="50.0498634" y="55.9648473" width="10.0099727" height="6.21831637" rx="3.10915818"></rect>
                <rect id="Rectangle-5" x="68.5080979" y="31.0915818" width="6.58731711" height="6.21831637" rx="3.10915818"></rect>
                <g id="Group-5" transform="translate(162.569076, 88.052668) rotate(-4.000000) translate(-162.569076, -88.052668) translate(79.069076, 75.552668)">
                    <rect id="Rectangle-5" x="106.669452" y="-3.33066907e-15" width="60.0598361" height="6.21831637" rx="3.10915818"></rect>
                    <rect id="Rectangle-5" x="81.6445202" y="1.72528658e-13" width="15.014959" height="6.21831637" rx="3.10915818"></rect>
                    <rect id="Rectangle-5" x="0.363288287" y="17.8723903" width="15.014959" height="6.21831637" rx="3.10915818"></rect>
                    <rect id="Rectangle-5" x="46.6096158" y="6.59472477e-14" width="25.0249317" height="6.21831637" rx="3.10915818"></rect>
                    <rect id="Rectangle-5" x="21.5846841" y="2.04503081e-13" width="10.0099727" height="6.21831637" rx="3.10915818"></rect>
                </g>
                <g id="Group-4" transform="translate(163.615058, 30.555498) rotate(4.000000) translate(-163.615058, -30.555498) translate(80.615058, 18.055498)">
                    <rect id="Rectangle-5" x="105.104713" y="18.6549491" width="60.0598361" height="6.21831637" rx="3.10915818"></rect>
                    <rect id="Rectangle-5" x="65.0648225" y="18.6549491" width="25.0249317" height="6.21831637" rx="3.10915818"></rect>
                    <rect id="Rectangle-5" x="40.0398907" y="18.6549491" width="10.0099727" height="6.21831637" rx="3.10915818"></rect>
                    <rect id="Rectangle-5" x="1.75859327e-13" y="1.22124533e-14" width="15.014959" height="6.21831637" rx="3.10915818"></rect>
                    <rect id="Rectangle-5" x="15.014959" y="18.6549491" width="10.0099727" height="6.21831637" rx="3.10915818"></rect>
                </g>
            </g>
        </g>
    </g>
</svg>