<?xml version="1.0" encoding="UTF-8"?>
<svg width="98px" height="42px" viewBox="0 0 98 42" version="1.1" xmlns="http://www.w3.org/2000/svg" xmlns:xlink="http://www.w3.org/1999/xlink">
    <!-- Generator: Sketch 50.2 (55047) - http://www.bohemiancoding.com/sketch -->
    <title>+25%</title>
    <desc>Created with Sketch.</desc>
    <defs></defs>
    <g id="1920-copy" stroke="none" stroke-width="1" fill="none" fill-rule="evenodd">
        <g id="Custom-Preset-10-Copy-2" transform="translate(-341.000000, -687.000000)" fill="#FFFFFF">
            <g id="Group-2" transform="translate(339.816406, 396.241873)">
                <path d="M20.51784,312.61932 L12.22956,312.61932 L12.22956,321.08148 L10.25892,321.08148 L10.25892,312.61932 L2.0286,312.61932 L2.0286,310.64868 L10.25892,310.64868 L10.25892,302.30244 L12.22956,302.30244 L12.22956,310.64868 L20.51784,310.64868 L20.51784,312.61932 Z M33.55884,291.00024 C39.87648,291.00024 42.3108,295.4052 42.3108,301.31712 C42.3108,313.02504 27.64692,317.08224 27.47304,329.022 L27.47304,329.48568 L41.96304,329.48568 L41.96304,331.92 L24.80688,331.92 L24.80688,329.94936 C24.80688,315.63324 39.64464,312.56136 39.64464,301.43304 C39.64464,296.73828 38.07972,293.43456 33.44292,293.43456 C28.98,293.43456 27.35712,296.91216 27.35712,301.25916 L27.35712,304.04124 L24.80688,304.04124 L24.80688,301.43304 C24.80688,295.57908 27.29916,291.00024 33.55884,291.00024 Z M50.4252,293.78232 L49.67172,308.27232 C51.06276,306.06984 53.20728,305.14248 56.2212,305.14248 C61.84332,305.14248 64.10376,309.43152 64.10376,315.05364 L64.10376,322.00884 C64.10376,327.8628 61.49556,332.26776 55.29384,332.26776 C49.15008,332.26776 46.54188,327.8628 46.54188,322.00884 L46.54188,319.80636 L49.09212,319.80636 L49.09212,322.12476 C49.09212,326.47176 50.83092,329.77548 55.23588,329.77548 C59.6988,329.77548 61.4376,326.47176 61.4376,322.12476 L61.4376,315.28548 C61.4376,310.93848 59.6988,307.63476 55.23588,307.63476 C52.27992,307.63476 50.25132,309.25764 49.43988,312.27156 L49.43988,312.96708 L46.9476,312.96708 L47.99088,291.29004 L63.23436,291.29004 L63.23436,293.78232 L50.4252,293.78232 Z M73.899,291.23208 C77.84028,291.23208 79.4052,294.13008 79.4052,297.78156 L79.4052,310.12704 C79.4052,313.77852 77.84028,316.67652 73.899,316.67652 C70.01568,316.67652 68.45076,313.77852 68.45076,310.12704 L68.45076,297.78156 C68.45076,294.13008 70.01568,291.23208 73.899,291.23208 Z M90.82332,291.29004 L92.56212,291.29004 L76.56516,331.92 L74.82636,331.92 L90.82332,291.29004 Z M73.899,292.91292 C71.11692,292.91292 70.24752,295.1154 70.24752,297.7236 L70.24752,310.24296 C70.24752,312.7932 71.11692,314.99568 73.899,314.99568 C76.62312,314.99568 77.55048,312.7932 77.55048,310.24296 L77.55048,297.7236 C77.55048,295.1154 76.62312,292.91292 73.899,292.91292 Z M93.66336,306.64944 C97.60464,306.64944 99.1116,309.6054 99.1116,313.25688 L99.1116,325.42848 C99.1116,329.07996 97.60464,332.03592 93.66336,332.03592 C89.72208,332.03592 88.15716,329.07996 88.15716,325.42848 L88.15716,313.25688 C88.15716,309.6054 89.72208,306.64944 93.66336,306.64944 Z M93.66336,308.38824 C90.93924,308.38824 90.01188,310.53276 90.01188,313.14096 L90.01188,325.5444 C90.01188,328.09464 90.93924,330.35508 93.66336,330.35508 C96.44544,330.35508 97.31484,328.09464 97.31484,325.5444 L97.31484,313.14096 C97.31484,310.53276 96.44544,308.38824 93.66336,308.38824 Z" id="+25%"></path>
            </g>
        </g>
    </g>
</svg>